<svg width="33" height="33" viewBox="0 0 33 33" fill="none" xmlns="http://www.w3.org/2000/svg">
<rect x="0.5" y="0.5" width="32" height="32" rx="16" fill="#181818"/>
<rect x="0.5" y="0.5" width="32" height="32" rx="16" stroke="#242424"/>
<path d="M10.9005 24.3665C10.5507 24.7164 9.9834 24.7164 9.63352 24.3665C9.28363 24.0166 9.28363 23.4493 9.63352 23.0995L15.0259 17.7071C15.4164 17.3166 15.4164 16.6834 15.0259 16.2929L9.63352 10.9005C9.28363 10.5507 9.28363 9.9834 9.63352 9.63352C9.9834 9.28363 10.5507 9.28363 10.9005 9.63352L16.2929 15.0259C16.6834 15.4164 17.3166 15.4164 17.7071 15.0259L23.0995 9.63352C23.4493 9.28364 24.0166 9.28363 24.3665 9.63352C24.7164 9.9834 24.7164 10.5507 24.3665 10.9005L18.9741 16.2929C18.5836 16.6834 18.5836 17.3166 18.9741 17.7071L24.3665 23.0995C24.7164 23.4493 24.7164 24.0166 24.3665 24.3665C24.0166 24.7164 23.4493 24.7164 23.0995 24.3665L17.7071 18.9741C17.3166 18.5836 16.6834 18.5836 16.2929 18.9741L10.9005 24.3665Z" fill="white"/>
</svg>
