<svg width="58" height="32" viewBox="0 0 58 32" fill="none" xmlns="http://www.w3.org/2000/svg">
<path d="M12.459 31.516C10.051 31.516 7.74333 31.2007 5.536 30.57C3.32867 29.9107 1.55133 29.065 0.204 28.033L2.569 22.787C3.859 23.7043 5.37833 24.464 7.127 25.066C8.90433 25.6393 10.696 25.926 12.502 25.926C13.878 25.926 14.9817 25.797 15.813 25.539C16.673 25.2523 17.3037 24.8653 17.705 24.378C18.1063 23.8907 18.307 23.3317 18.307 22.701C18.307 21.8983 17.9917 21.2677 17.361 20.809C16.7303 20.3217 15.899 19.9347 14.867 19.648C13.835 19.3327 12.6883 19.046 11.427 18.788C10.1943 18.5013 8.94733 18.1573 7.686 17.756C6.45333 17.3547 5.321 16.8387 4.289 16.208C3.257 15.5773 2.41133 14.746 1.752 13.714C1.12133 12.682 0.806 11.3633 0.806 9.758C0.806 8.038 1.26467 6.47567 2.182 5.071C3.128 3.63766 4.53267 2.50533 6.396 1.674C8.288 0.813999 10.653 0.383999 13.491 0.383999C15.383 0.383999 17.2463 0.613332 19.081 1.072C20.9157 1.502 22.5353 2.16133 23.94 3.05L21.79 8.339C20.3853 7.53633 18.9807 6.94867 17.576 6.576C16.1713 6.17467 14.7953 5.974 13.448 5.974C12.1007 5.974 10.997 6.13167 10.137 6.447C9.277 6.76233 8.66067 7.178 8.288 7.694C7.91533 8.18133 7.729 8.75467 7.729 9.414C7.729 10.188 8.04433 10.8187 8.675 11.306C9.30567 11.7647 10.137 12.1373 11.169 12.424C12.201 12.7107 13.3333 12.9973 14.566 13.284C15.8273 13.5707 17.0743 13.9003 18.307 14.273C19.5683 14.6457 20.715 15.1473 21.747 15.778C22.779 16.4087 23.6103 17.24 24.241 18.272C24.9003 19.304 25.23 20.6083 25.23 22.185C25.23 23.8763 24.757 25.4243 23.811 26.829C22.865 28.2337 21.446 29.366 19.554 30.226C17.6907 31.086 15.3257 31.516 12.459 31.516ZM44.6529 31.516C42.2736 31.516 40.0806 31.1433 38.0739 30.398C36.0959 29.624 34.3616 28.5347 32.8709 27.13C31.4089 25.7253 30.2622 24.077 29.4309 22.185C28.6282 20.293 28.2269 18.2147 28.2269 15.95C28.2269 13.6853 28.6282 11.607 29.4309 9.715C30.2622 7.823 31.4232 6.17467 32.9139 4.77C34.4046 3.36533 36.1532 2.29033 38.1599 1.545C40.1666 0.770999 42.3739 0.383999 44.7819 0.383999C47.4479 0.383999 49.8416 0.828332 51.9629 1.717C54.1129 2.60566 55.9189 3.89567 57.3809 5.587L52.9089 9.715C51.8196 8.56833 50.6299 7.72267 49.3399 7.178C48.0499 6.60467 46.6452 6.318 45.1259 6.318C43.6639 6.318 42.3309 6.54733 41.1269 7.006C39.9229 7.46466 38.8766 8.124 37.9879 8.984C37.1279 9.844 36.4542 10.8617 35.9669 12.037C35.5082 13.2123 35.2789 14.5167 35.2789 15.95C35.2789 17.3547 35.5082 18.6447 35.9669 19.82C36.4542 20.9953 37.1279 22.0273 37.9879 22.916C38.8766 23.776 39.9086 24.4353 41.0839 24.894C42.2879 25.3527 43.6066 25.582 45.0399 25.582C46.4159 25.582 47.7489 25.367 49.0389 24.937C50.3576 24.4783 51.6332 23.7187 52.8659 22.658L56.8219 27.689C55.1879 28.9217 53.2816 29.8677 51.1029 30.527C48.9529 31.1863 46.8029 31.516 44.6529 31.516ZM50.4579 26.786V15.477H56.8219V27.689L50.4579 26.786Z" fill="url(#paint0_linear_2_123)"/>
<defs>
<linearGradient id="paint0_linear_2_123" x1="-1" y1="16" x2="60" y2="16" gradientUnits="userSpaceOnUse">
<stop stop-color="#001AFF"/>
<stop offset="0.25" stop-color="#A50EDA"/>
<stop offset="0.495" stop-color="#FC036D"/>
<stop offset="0.75" stop-color="#FD523D"/>
<stop offset="0.97" stop-color="#FAFF00"/>
</linearGradient>
</defs>
</svg>
