<svg width="494" height="426" viewBox="0 0 494 426" fill="none" xmlns="http://www.w3.org/2000/svg">
<rect x="1" y="1" width="492" height="424" rx="33" fill="url(#paint0_linear_52_28)"/>
<rect x="1" y="1" width="492" height="424" rx="33" stroke="#393939" stroke-width="2"/>
<mask id="path-2-outside-1_52_28" maskUnits="userSpaceOnUse" x="40" y="105" width="406" height="222" fill="black">
<rect fill="white" x="40" y="105" width="406" height="222"/>
<path d="M128.9 324.6C112.1 324.6 96 322.4 80.6 318C65.2 313.4 52.8 307.5 43.4 300.3L59.9 263.7C68.9 270.1 79.5 275.4 91.7 279.6C104.1 283.6 116.6 285.6 129.2 285.6C138.8 285.6 146.5 284.7 152.3 282.9C158.3 280.9 162.7 278.2 165.5 274.8C168.3 271.4 169.7 267.5 169.7 263.1C169.7 257.5 167.5 253.1 163.1 249.9C158.7 246.5 152.9 243.8 145.7 241.8C138.5 239.6 130.5 237.6 121.7 235.8C113.1 233.8 104.4 231.4 95.6 228.6C87 225.8 79.1 222.2 71.9 217.8C64.7 213.4 58.8 207.6 54.2 200.4C49.8 193.2 47.6 184 47.6 172.8C47.6 160.8 50.8 149.9 57.2 140.1C63.8 130.1 73.6 122.2 86.6 116.4C99.8 110.4 116.3 107.4 136.1 107.4C149.3 107.4 162.3 109 175.1 112.2C187.9 115.2 199.2 119.8 209 126L194 162.9C184.2 157.3 174.4 153.2 164.6 150.6C154.8 147.8 145.2 146.4 135.8 146.4C126.4 146.4 118.7 147.5 112.7 149.7C106.7 151.9 102.4 154.8 99.8 158.4C97.2 161.8 95.9 165.8 95.9 170.4C95.9 175.8 98.1 180.2 102.5 183.6C106.9 186.8 112.7 189.4 119.9 191.4C127.1 193.4 135 195.4 143.6 197.4C152.4 199.4 161.1 201.7 169.7 204.3C178.5 206.9 186.5 210.4 193.7 214.8C200.9 219.2 206.7 225 211.1 232.2C215.7 239.4 218 248.5 218 259.5C218 271.3 214.7 282.1 208.1 291.9C201.5 301.7 191.6 309.6 178.4 315.6C165.4 321.6 148.9 324.6 128.9 324.6ZM353.509 324.6C336.909 324.6 321.609 322 307.609 316.8C293.809 311.4 281.709 303.8 271.309 294C261.109 284.2 253.109 272.7 247.309 259.5C241.709 246.3 238.909 231.8 238.909 216C238.909 200.2 241.709 185.7 247.309 172.5C253.109 159.3 261.209 147.8 271.609 138C282.009 128.2 294.209 120.7 308.209 115.5C322.209 110.1 337.609 107.4 354.409 107.4C373.009 107.4 389.709 110.5 404.509 116.7C419.509 122.9 432.109 131.9 442.309 143.7L411.109 172.5C403.509 164.5 395.209 158.6 386.209 154.8C377.209 150.8 367.409 148.8 356.809 148.8C346.609 148.8 337.309 150.4 328.909 153.6C320.509 156.8 313.209 161.4 307.009 167.4C301.009 173.4 296.309 180.5 292.909 188.7C289.709 196.9 288.109 206 288.109 216C288.109 225.8 289.709 234.8 292.909 243C296.309 251.2 301.009 258.4 307.009 264.6C313.209 270.6 320.409 275.2 328.609 278.4C337.009 281.6 346.209 283.2 356.209 283.2C365.809 283.2 375.109 281.7 384.109 278.7C393.309 275.5 402.209 270.2 410.809 262.8L438.409 297.9C427.009 306.5 413.709 313.1 398.509 317.7C383.509 322.3 368.509 324.6 353.509 324.6ZM394.009 291.6V212.7H438.409V297.9L394.009 291.6Z"/>
</mask>
<path d="M128.9 324.6C112.1 324.6 96 322.4 80.6 318C65.2 313.4 52.8 307.5 43.4 300.3L59.9 263.7C68.9 270.1 79.5 275.4 91.7 279.6C104.1 283.6 116.6 285.6 129.2 285.6C138.8 285.6 146.5 284.7 152.3 282.9C158.3 280.9 162.7 278.2 165.5 274.8C168.3 271.4 169.7 267.5 169.7 263.1C169.7 257.5 167.5 253.1 163.1 249.9C158.7 246.5 152.9 243.8 145.7 241.8C138.5 239.6 130.5 237.6 121.7 235.8C113.1 233.8 104.4 231.4 95.6 228.6C87 225.8 79.1 222.2 71.9 217.8C64.7 213.4 58.8 207.6 54.2 200.4C49.8 193.2 47.6 184 47.6 172.8C47.6 160.8 50.8 149.9 57.2 140.1C63.8 130.1 73.6 122.2 86.6 116.4C99.8 110.4 116.3 107.4 136.1 107.4C149.3 107.4 162.3 109 175.1 112.2C187.9 115.2 199.2 119.8 209 126L194 162.9C184.2 157.3 174.4 153.2 164.6 150.6C154.8 147.8 145.2 146.4 135.8 146.4C126.4 146.4 118.7 147.5 112.7 149.7C106.7 151.9 102.4 154.8 99.8 158.4C97.2 161.8 95.9 165.8 95.9 170.4C95.9 175.8 98.1 180.2 102.5 183.6C106.9 186.8 112.7 189.4 119.9 191.4C127.1 193.4 135 195.4 143.6 197.4C152.4 199.4 161.1 201.7 169.7 204.3C178.5 206.9 186.5 210.4 193.7 214.8C200.9 219.2 206.7 225 211.1 232.2C215.7 239.4 218 248.5 218 259.5C218 271.3 214.7 282.1 208.1 291.9C201.5 301.7 191.6 309.6 178.4 315.6C165.4 321.6 148.9 324.6 128.9 324.6ZM353.509 324.6C336.909 324.6 321.609 322 307.609 316.8C293.809 311.4 281.709 303.8 271.309 294C261.109 284.2 253.109 272.7 247.309 259.5C241.709 246.3 238.909 231.8 238.909 216C238.909 200.2 241.709 185.7 247.309 172.5C253.109 159.3 261.209 147.8 271.609 138C282.009 128.2 294.209 120.7 308.209 115.5C322.209 110.1 337.609 107.4 354.409 107.4C373.009 107.4 389.709 110.5 404.509 116.7C419.509 122.9 432.109 131.9 442.309 143.7L411.109 172.5C403.509 164.5 395.209 158.6 386.209 154.8C377.209 150.8 367.409 148.8 356.809 148.8C346.609 148.8 337.309 150.4 328.909 153.6C320.509 156.8 313.209 161.4 307.009 167.4C301.009 173.4 296.309 180.5 292.909 188.7C289.709 196.9 288.109 206 288.109 216C288.109 225.8 289.709 234.8 292.909 243C296.309 251.2 301.009 258.4 307.009 264.6C313.209 270.6 320.409 275.2 328.609 278.4C337.009 281.6 346.209 283.2 356.209 283.2C365.809 283.2 375.109 281.7 384.109 278.7C393.309 275.5 402.209 270.2 410.809 262.8L438.409 297.9C427.009 306.5 413.709 313.1 398.509 317.7C383.509 322.3 368.509 324.6 353.509 324.6ZM394.009 291.6V212.7H438.409V297.9L394.009 291.6Z" fill="url(#paint1_linear_52_28)"/>
<path d="M80.6 318L80.0276 319.916L80.0391 319.92L80.0506 319.923L80.6 318ZM43.4 300.3L41.5767 299.478L40.925 300.924L42.1838 301.888L43.4 300.3ZM59.9 263.7L61.059 262.07L59.0765 260.66L58.0767 262.878L59.9 263.7ZM91.7 279.6L91.049 281.491L91.0674 281.497L91.086 281.503L91.7 279.6ZM152.3 282.9L152.893 284.81L152.913 284.804L152.932 284.797L152.3 282.9ZM165.5 274.8L163.956 273.529L165.5 274.8ZM163.1 249.9L161.877 251.483L161.9 251.5L161.924 251.517L163.1 249.9ZM145.7 241.8L145.116 243.713L145.14 243.72L145.165 243.727L145.7 241.8ZM121.7 235.8L121.247 237.748L121.273 237.754L121.299 237.759L121.7 235.8ZM95.6 228.6L94.9808 230.502L94.9936 230.506L95.6 228.6ZM71.9 217.8L70.8571 219.507L71.9 217.8ZM54.2 200.4L52.4934 201.443L52.5039 201.46L52.5146 201.477L54.2 200.4ZM57.2 140.1L55.5308 138.998L55.5255 139.006L57.2 140.1ZM86.6 116.4L87.4149 118.226L87.4276 118.221L86.6 116.4ZM175.1 112.2L174.615 114.14L174.629 114.144L174.644 114.147L175.1 112.2ZM209 126L210.853 126.753L211.483 125.204L210.069 124.31L209 126ZM194 162.9L193.008 164.636L194.992 165.77L195.853 163.653L194 162.9ZM164.6 150.6L164.051 152.523L164.069 152.528L164.087 152.533L164.6 150.6ZM112.7 149.7L112.011 147.822L112.7 149.7ZM99.8 158.4L101.389 159.615L101.405 159.593L101.421 159.571L99.8 158.4ZM102.5 183.6L101.277 185.183L101.3 185.2L101.324 185.217L102.5 183.6ZM119.9 191.4L119.365 193.327L119.9 191.4ZM143.6 197.4L143.147 199.348L143.157 199.35L143.6 197.4ZM169.7 204.3L169.121 206.214L169.133 206.218L169.7 204.3ZM193.7 214.8L194.743 213.093L193.7 214.8ZM211.1 232.2L209.393 233.243L209.404 233.26L209.415 233.277L211.1 232.2ZM208.1 291.9L209.759 293.017L208.1 291.9ZM178.4 315.6L177.572 313.779L177.562 313.784L178.4 315.6ZM128.9 322.6C112.277 322.6 96.3622 320.423 81.1494 316.077L80.0506 319.923C95.6378 324.377 111.923 326.6 128.9 326.6V322.6ZM81.1724 316.084C65.9274 311.53 53.7679 305.722 44.6162 298.712L42.1838 301.888C51.8321 309.278 64.4726 315.27 80.0276 319.916L81.1724 316.084ZM45.2233 301.122L61.7233 264.522L58.0767 262.878L41.5767 299.478L45.2233 301.122ZM58.741 265.33C67.9206 271.858 78.6977 277.239 91.049 281.491L92.351 277.709C80.3023 273.561 69.8794 268.342 61.059 262.07L58.741 265.33ZM91.086 281.503C103.678 285.565 116.384 287.6 129.2 287.6V283.6C116.816 283.6 104.522 281.635 92.314 277.697L91.086 281.503ZM129.2 287.6C138.899 287.6 146.823 286.694 152.893 284.81L151.707 280.99C146.177 282.706 138.701 283.6 129.2 283.6V287.6ZM152.932 284.797C159.142 282.728 163.922 279.862 167.044 276.071L163.956 273.529C161.478 276.538 157.458 279.072 151.668 281.003L152.932 284.797ZM167.044 276.071C170.138 272.314 171.7 267.964 171.7 263.1H167.7C167.7 267.036 166.462 270.486 163.956 273.529L167.044 276.071ZM171.7 263.1C171.7 256.882 169.212 251.872 164.276 248.283L161.924 251.517C165.789 254.328 167.7 258.118 167.7 263.1H171.7ZM164.323 248.317C159.661 244.715 153.604 241.92 146.235 239.873L145.165 243.727C152.196 245.68 157.739 248.285 161.877 251.483L164.323 248.317ZM146.284 239.887C139.014 237.666 130.951 235.651 122.101 233.841L121.299 237.759C130.049 239.549 137.986 241.534 145.116 243.713L146.284 239.887ZM122.153 233.852C113.607 231.865 104.958 229.479 96.2064 226.694L94.9936 230.506C103.842 233.321 112.593 235.735 121.247 237.748L122.153 233.852ZM96.2192 226.698C87.757 223.943 80.0006 220.406 72.9429 216.093L70.8571 219.507C78.1994 223.994 86.243 227.657 94.9808 230.502L96.2192 226.698ZM72.9429 216.093C66.0055 211.854 60.324 206.271 55.8854 199.323L52.5146 201.477C57.276 208.929 63.3945 214.946 70.8571 219.507L72.9429 216.093ZM55.9066 199.357C51.7516 192.558 49.6 183.749 49.6 172.8H45.6C45.6 184.251 47.8484 193.842 52.4934 201.443L55.9066 199.357ZM49.6 172.8C49.6 161.178 52.6925 150.66 58.8745 141.194L55.5255 139.006C48.9075 149.14 45.6 160.422 45.6 172.8H49.6ZM58.8692 141.202C65.2226 131.575 74.6966 123.901 87.4149 118.226L85.7851 114.574C72.5034 120.499 62.3774 128.625 55.5308 138.998L58.8692 141.202ZM87.4276 118.221C100.291 112.374 116.487 109.4 136.1 109.4V105.4C116.113 105.4 99.309 108.426 85.7724 114.579L87.4276 118.221ZM136.1 109.4C149.137 109.4 161.974 110.98 174.615 114.14L175.585 110.26C162.626 107.02 149.463 105.4 136.1 105.4V109.4ZM174.644 114.147C187.255 117.103 198.343 121.624 207.931 127.69L210.069 124.31C200.057 117.976 188.545 113.297 175.556 110.253L174.644 114.147ZM207.147 125.247L192.147 162.147L195.853 163.653L210.853 126.753L207.147 125.247ZM194.992 161.164C185.058 155.487 175.098 151.316 165.113 148.667L164.087 152.533C173.702 155.084 183.342 159.113 193.008 164.636L194.992 161.164ZM165.149 148.677C155.186 145.83 145.401 144.4 135.8 144.4V148.4C144.999 148.4 154.414 149.77 164.051 152.523L165.149 148.677ZM135.8 144.4C126.265 144.4 118.31 145.513 112.011 147.822L113.389 151.578C119.09 149.487 126.535 148.4 135.8 148.4V144.4ZM112.011 147.822C105.794 150.102 101.094 153.193 98.1786 157.229L101.421 159.571C103.706 156.407 107.606 153.698 113.389 151.578L112.011 147.822ZM98.2113 157.185C95.3241 160.961 93.9 165.396 93.9 170.4H97.9C97.9 166.204 99.0759 162.639 101.389 159.615L98.2113 157.185ZM93.9 170.4C93.9 176.441 96.404 181.417 101.277 185.183L103.723 182.017C99.796 178.983 97.9 175.159 97.9 170.4H93.9ZM101.324 185.217C105.975 188.6 112.014 191.285 119.365 193.327L120.435 189.473C113.386 187.515 107.825 185 103.676 181.983L101.324 185.217ZM119.365 193.327C126.596 195.336 134.524 197.343 143.147 199.348L144.053 195.452C135.476 193.457 127.604 191.464 120.435 189.473L119.365 193.327ZM143.157 199.35C151.911 201.34 160.566 203.628 169.121 206.214L170.279 202.386C161.634 199.772 152.889 197.46 144.043 195.45L143.157 199.35ZM169.133 206.218C177.781 208.773 185.618 212.205 192.657 216.507L194.743 213.093C187.382 208.595 179.219 205.027 170.267 202.382L169.133 206.218ZM192.657 216.507C199.586 220.741 205.159 226.314 209.393 233.243L212.807 231.157C208.241 223.686 202.214 217.659 194.743 213.093L192.657 216.507ZM209.415 233.277C213.758 240.075 216 248.773 216 259.5H220C220 248.227 217.642 238.725 212.785 231.123L209.415 233.277ZM216 259.5C216 270.901 212.819 281.312 206.441 290.783L209.759 293.017C216.581 282.887 220 271.699 220 259.5H216ZM206.441 290.783C200.09 300.213 190.512 307.898 177.572 313.779L179.228 317.421C192.688 311.302 202.91 303.187 209.759 293.017L206.441 290.783ZM177.562 313.784C164.907 319.625 148.718 322.6 128.9 322.6V326.6C149.082 326.6 165.893 323.575 179.238 317.416L177.562 313.784ZM307.609 316.8L306.88 318.662L306.896 318.669L306.912 318.675L307.609 316.8ZM271.309 294L269.923 295.442L269.93 295.449L269.937 295.456L271.309 294ZM247.309 259.5L245.467 260.281L245.472 260.293L245.478 260.305L247.309 259.5ZM247.309 172.5L245.478 171.695L245.472 171.707L245.467 171.719L247.309 172.5ZM271.609 138L272.98 139.456L271.609 138ZM308.209 115.5L308.905 117.375L308.917 117.37L308.928 117.366L308.209 115.5ZM404.509 116.7L403.736 118.545L403.745 118.548L404.509 116.7ZM442.309 143.7L443.665 145.17L445.088 143.857L443.822 142.392L442.309 143.7ZM411.109 172.5L409.659 173.877L411.016 175.307L412.465 173.97L411.109 172.5ZM386.209 154.8L385.396 156.628L385.413 156.635L385.431 156.642L386.209 154.8ZM307.009 167.4L305.618 165.963L305.606 165.974L305.594 165.986L307.009 167.4ZM292.909 188.7L291.061 187.934L291.053 187.953L291.045 187.973L292.909 188.7ZM292.909 243L291.045 243.727L291.053 243.747L291.061 243.766L292.909 243ZM307.009 264.6L305.571 265.991L305.594 266.014L305.618 266.037L307.009 264.6ZM328.609 278.4L327.882 280.263L327.889 280.266L327.897 280.269L328.609 278.4ZM384.109 278.7L384.741 280.597L384.753 280.593L384.766 280.589L384.109 278.7ZM410.809 262.8L412.381 261.564L411.089 259.921L409.504 261.284L410.809 262.8ZM438.409 297.9L439.613 299.497L441.242 298.268L439.981 296.664L438.409 297.9ZM398.509 317.7L397.929 315.786L397.922 315.788L398.509 317.7ZM394.009 291.6H392.009V293.336L393.728 293.58L394.009 291.6ZM394.009 212.7V210.7H392.009V212.7H394.009ZM438.409 212.7H440.409V210.7H438.409V212.7ZM438.409 297.9L438.128 299.88L440.409 300.204V297.9H438.409ZM353.509 322.6C337.12 322.6 322.059 320.034 308.305 314.925L306.912 318.675C321.159 323.966 336.697 326.6 353.509 326.6V322.6ZM308.337 314.938C294.767 309.627 282.887 302.162 272.68 292.544L269.937 295.456C280.53 305.438 292.85 313.173 306.88 318.662L308.337 314.938ZM272.694 292.558C262.687 282.943 254.836 271.661 249.14 258.695L245.478 260.305C251.381 273.739 259.53 285.457 269.923 295.442L272.694 292.558ZM249.15 258.719C243.665 245.79 240.909 231.559 240.909 216H236.909C236.909 232.041 239.752 246.81 245.467 260.281L249.15 258.719ZM240.909 216C240.909 200.441 243.665 186.21 249.15 173.281L245.467 171.719C239.752 185.19 236.909 199.959 236.909 216H240.909ZM249.14 173.305C254.833 160.348 262.777 149.07 272.98 139.456L270.237 136.544C259.64 146.53 251.384 158.252 245.478 171.695L249.14 173.305ZM272.98 139.456C283.177 129.847 295.144 122.486 308.905 117.375L307.512 113.625C293.273 118.914 280.84 126.553 270.237 136.544L272.98 139.456ZM308.928 117.366C322.673 112.065 337.825 109.4 354.409 109.4V105.4C337.392 105.4 321.744 108.135 307.489 113.634L308.928 117.366ZM354.409 109.4C372.785 109.4 389.216 112.462 403.736 118.545L405.281 114.855C390.201 108.538 373.232 105.4 354.409 105.4V109.4ZM403.745 118.548C418.468 124.634 430.808 133.454 440.796 145.008L443.822 142.392C433.409 130.346 420.549 121.166 405.273 114.852L403.745 118.548ZM440.952 142.23L409.752 171.03L412.465 173.97L443.665 145.17L440.952 142.23ZM412.559 171.122C404.794 162.949 396.271 156.878 386.987 152.957L385.431 156.642C394.146 160.322 402.224 166.051 409.659 173.877L412.559 171.122ZM387.021 152.972C377.746 148.85 367.667 146.8 356.809 146.8V150.8C367.15 150.8 376.671 152.75 385.396 156.628L387.021 152.972ZM356.809 146.8C346.398 146.8 336.852 148.434 328.197 151.731L329.621 155.469C337.765 152.366 346.819 150.8 356.809 150.8V146.8ZM328.197 151.731C319.554 155.023 312.021 159.766 305.618 165.963L308.399 168.837C314.397 163.033 321.463 158.577 329.621 155.469L328.197 151.731ZM305.594 165.986C299.4 172.18 294.557 179.503 291.061 187.934L294.756 189.466C298.06 181.497 302.617 174.62 308.423 168.814L305.594 165.986ZM291.045 187.973C287.744 196.434 286.109 205.785 286.109 216H290.109C290.109 206.215 291.674 197.366 294.772 189.427L291.045 187.973ZM286.109 216C286.109 226.021 287.745 235.271 291.045 243.727L294.772 242.273C291.672 234.329 290.109 225.579 290.109 216H286.109ZM291.061 243.766C294.555 252.191 299.392 259.605 305.571 265.991L308.446 263.209C302.626 257.195 298.063 250.209 294.756 242.234L291.061 243.766ZM305.618 266.037C312.012 272.226 319.439 276.969 327.882 280.263L329.336 276.537C321.378 273.431 314.405 268.974 308.399 263.163L305.618 266.037ZM327.897 280.269C336.548 283.565 345.993 285.2 356.209 285.2V281.2C346.425 281.2 337.469 279.635 329.321 276.531L327.897 280.269ZM356.209 285.2C366.021 285.2 375.535 283.666 384.741 280.597L383.476 276.803C374.683 279.734 365.596 281.2 356.209 281.2V285.2ZM384.766 280.589C394.239 277.294 403.354 271.853 412.113 264.316L409.504 261.284C401.064 268.547 392.379 273.706 383.452 276.811L384.766 280.589ZM409.236 264.036L436.836 299.136L439.981 296.664L412.381 261.564L409.236 264.036ZM437.204 296.303C426.012 304.746 412.929 311.246 397.929 315.786L399.088 319.614C414.488 314.954 428.005 308.254 439.613 299.497L437.204 296.303ZM397.922 315.788C383.103 320.332 368.301 322.6 353.509 322.6V326.6C368.716 326.6 383.914 324.268 399.095 319.612L397.922 315.788ZM396.009 291.6V212.7H392.009V291.6H396.009ZM394.009 214.7H438.409V210.7H394.009V214.7ZM436.409 212.7V297.9H440.409V212.7H436.409ZM438.69 295.92L394.29 289.62L393.728 293.58L438.128 299.88L438.69 295.92Z" fill="white" mask="url(#path-2-outside-1_52_28)"/>
<path d="M150.512 386.288C149.168 386.288 147.88 386.112 146.648 385.76C145.416 385.392 144.424 384.92 143.672 384.344L144.992 381.416C145.712 381.928 146.56 382.352 147.536 382.688C148.528 383.008 149.528 383.168 150.536 383.168C151.304 383.168 151.92 383.096 152.384 382.952C152.864 382.792 153.216 382.576 153.44 382.304C153.664 382.032 153.776 381.72 153.776 381.368C153.776 380.92 153.6 380.568 153.248 380.312C152.896 380.04 152.432 379.824 151.856 379.664C151.28 379.488 150.64 379.328 149.936 379.184C149.248 379.024 148.552 378.832 147.848 378.608C147.16 378.384 146.528 378.096 145.952 377.744C145.376 377.392 144.904 376.928 144.536 376.352C144.184 375.776 144.008 375.04 144.008 374.144C144.008 373.184 144.264 372.312 144.776 371.528C145.304 370.728 146.088 370.096 147.128 369.632C148.184 369.152 149.504 368.912 151.088 368.912C152.144 368.912 153.184 369.04 154.208 369.296C155.232 369.536 156.136 369.904 156.92 370.4L155.72 373.352C154.936 372.904 154.152 372.576 153.368 372.368C152.584 372.144 151.816 372.032 151.064 372.032C150.312 372.032 149.696 372.12 149.216 372.296C148.736 372.472 148.392 372.704 148.184 372.992C147.976 373.264 147.872 373.584 147.872 373.952C147.872 374.384 148.048 374.736 148.4 375.008C148.752 375.264 149.216 375.472 149.792 375.632C150.368 375.792 151 375.952 151.688 376.112C152.392 376.272 153.088 376.456 153.776 376.664C154.48 376.872 155.12 377.152 155.696 377.504C156.272 377.856 156.736 378.32 157.088 378.896C157.456 379.472 157.64 380.2 157.64 381.08C157.64 382.024 157.376 382.888 156.848 383.672C156.32 384.456 155.528 385.088 154.472 385.568C153.432 386.048 152.112 386.288 150.512 386.288ZM165.385 386.192C163.865 386.192 162.681 385.808 161.833 385.04C160.985 384.256 160.561 383.096 160.561 381.56V370.232H164.305V381.512C164.305 382.056 164.449 382.48 164.737 382.784C165.025 383.072 165.417 383.216 165.913 383.216C166.505 383.216 167.009 383.056 167.425 382.736L168.433 385.376C168.049 385.648 167.585 385.856 167.041 386C166.513 386.128 165.961 386.192 165.385 386.192ZM158.569 376.256V373.376H167.521V376.256H158.569ZM170.606 386V373.088H174.182V376.736L173.678 375.68C174.062 374.768 174.678 374.08 175.526 373.616C176.374 373.136 177.406 372.896 178.622 372.896V376.352C178.462 376.336 178.318 376.328 178.19 376.328C178.062 376.312 177.926 376.304 177.782 376.304C176.758 376.304 175.926 376.6 175.286 377.192C174.662 377.768 174.35 378.672 174.35 379.904V386H170.606ZM186.971 386.192C185.595 386.192 184.371 385.904 183.299 385.328C182.243 384.752 181.403 383.968 180.779 382.976C180.171 381.968 179.867 380.824 179.867 379.544C179.867 378.248 180.171 377.104 180.779 376.112C181.403 375.104 182.243 374.32 183.299 373.76C184.371 373.184 185.595 372.896 186.971 372.896C188.331 372.896 189.547 373.184 190.619 373.76C191.691 374.32 192.531 375.096 193.139 376.088C193.747 377.08 194.051 378.232 194.051 379.544C194.051 380.824 193.747 381.968 193.139 382.976C192.531 383.968 191.691 384.752 190.619 385.328C189.547 385.904 188.331 386.192 186.971 386.192ZM186.971 383.12C187.595 383.12 188.155 382.976 188.651 382.688C189.147 382.4 189.539 381.992 189.827 381.464C190.115 380.92 190.259 380.28 190.259 379.544C190.259 378.792 190.115 378.152 189.827 377.624C189.539 377.096 189.147 376.688 188.651 376.4C188.155 376.112 187.595 375.968 186.971 375.968C186.347 375.968 185.787 376.112 185.291 376.4C184.795 376.688 184.395 377.096 184.091 377.624C183.803 378.152 183.659 378.792 183.659 379.544C183.659 380.28 183.803 380.92 184.091 381.464C184.395 381.992 184.795 382.4 185.291 382.688C185.787 382.976 186.347 383.12 186.971 383.12ZM204.473 372.896C205.497 372.896 206.409 373.104 207.209 373.52C208.025 373.92 208.665 374.544 209.129 375.392C209.593 376.224 209.825 377.296 209.825 378.608V386H206.081V379.184C206.081 378.144 205.849 377.376 205.385 376.88C204.937 376.384 204.297 376.136 203.465 376.136C202.873 376.136 202.337 376.264 201.857 376.52C201.393 376.76 201.025 377.136 200.753 377.648C200.497 378.16 200.369 378.816 200.369 379.616V386H196.625V373.088H200.201V376.664L199.529 375.584C199.993 374.72 200.657 374.056 201.521 373.592C202.385 373.128 203.369 372.896 204.473 372.896ZM214.689 390.848C214.017 390.848 213.353 390.744 212.697 390.536C212.041 390.328 211.505 390.04 211.089 389.672L212.457 387.008C212.745 387.264 213.073 387.464 213.441 387.608C213.825 387.752 214.201 387.824 214.569 387.824C215.097 387.824 215.513 387.696 215.817 387.44C216.137 387.2 216.425 386.792 216.681 386.216L217.353 384.632L217.641 384.224L222.273 373.088H225.873L220.041 386.792C219.625 387.832 219.145 388.648 218.601 389.24C218.073 389.832 217.481 390.248 216.825 390.488C216.185 390.728 215.473 390.848 214.689 390.848ZM216.897 386.504L211.137 373.088H215.001L219.465 383.888L216.897 386.504ZM234.605 386V369.2H237.821L247.733 381.296H246.173V369.2H250.013V386H246.821L236.885 373.904H238.445V386H234.605ZM261.716 386V383.48L261.476 382.928V378.416C261.476 377.616 261.228 376.992 260.732 376.544C260.252 376.096 259.508 375.872 258.5 375.872C257.812 375.872 257.132 375.984 256.46 376.208C255.804 376.416 255.244 376.704 254.78 377.072L253.436 374.456C254.14 373.96 254.988 373.576 255.98 373.304C256.972 373.032 257.98 372.896 259.004 372.896C260.972 372.896 262.5 373.36 263.588 374.288C264.676 375.216 265.22 376.664 265.22 378.632V386H261.716ZM257.78 386.192C256.772 386.192 255.908 386.024 255.188 385.688C254.468 385.336 253.916 384.864 253.532 384.272C253.148 383.68 252.956 383.016 252.956 382.28C252.956 381.512 253.14 380.84 253.508 380.264C253.892 379.688 254.492 379.24 255.308 378.92C256.124 378.584 257.188 378.416 258.5 378.416H261.932V380.6H258.908C258.028 380.6 257.42 380.744 257.084 381.032C256.764 381.32 256.604 381.68 256.604 382.112C256.604 382.592 256.788 382.976 257.156 383.264C257.54 383.536 258.06 383.672 258.716 383.672C259.34 383.672 259.9 383.528 260.396 383.24C260.892 382.936 261.252 382.496 261.476 381.92L262.052 383.648C261.78 384.48 261.284 385.112 260.564 385.544C259.844 385.976 258.916 386.192 257.78 386.192ZM283.926 386.288C282.598 386.288 281.374 386.08 280.254 385.664C279.15 385.232 278.182 384.624 277.35 383.84C276.534 383.056 275.894 382.136 275.43 381.08C274.982 380.024 274.758 378.864 274.758 377.6C274.758 376.336 274.982 375.176 275.43 374.12C275.894 373.064 276.542 372.144 277.374 371.36C278.206 370.576 279.182 369.976 280.302 369.56C281.422 369.128 282.654 368.912 283.998 368.912C285.486 368.912 286.822 369.16 288.006 369.656C289.206 370.152 290.214 370.872 291.03 371.816L288.534 374.12C287.926 373.48 287.262 373.008 286.542 372.704C285.822 372.384 285.038 372.224 284.19 372.224C283.374 372.224 282.63 372.352 281.958 372.608C281.286 372.864 280.702 373.232 280.206 373.712C279.726 374.192 279.35 374.76 279.078 375.416C278.822 376.072 278.694 376.8 278.694 377.6C278.694 378.384 278.822 379.104 279.078 379.76C279.35 380.416 279.726 380.992 280.206 381.488C280.702 381.968 281.278 382.336 281.934 382.592C282.606 382.848 283.342 382.976 284.142 382.976C284.91 382.976 285.654 382.856 286.374 382.616C287.11 382.36 287.822 381.936 288.51 381.344L290.718 384.152C289.806 384.84 288.742 385.368 287.526 385.736C286.326 386.104 285.126 386.288 283.926 386.288ZM287.166 383.648V377.336H290.718V384.152L287.166 383.648ZM294.137 386V373.088H297.713V376.736L297.209 375.68C297.593 374.768 298.209 374.08 299.057 373.616C299.905 373.136 300.937 372.896 302.153 372.896V376.352C301.993 376.336 301.849 376.328 301.721 376.328C301.593 376.312 301.457 376.304 301.313 376.304C300.289 376.304 299.457 376.6 298.817 377.192C298.193 377.768 297.881 378.672 297.881 379.904V386H294.137ZM309.993 386.192C308.921 386.192 307.961 385.984 307.113 385.568C306.281 385.152 305.633 384.52 305.169 383.672C304.705 382.808 304.473 381.712 304.473 380.384V373.088H308.217V379.832C308.217 380.904 308.441 381.696 308.889 382.208C309.353 382.704 310.001 382.952 310.833 382.952C311.409 382.952 311.921 382.832 312.369 382.592C312.817 382.336 313.169 381.952 313.425 381.44C313.681 380.912 313.809 380.256 313.809 379.472V373.088H317.553V386H314.001V382.448L314.649 383.48C314.217 384.376 313.577 385.056 312.729 385.52C311.897 385.968 310.985 386.192 309.993 386.192ZM328.726 386.192C327.59 386.192 326.614 385.952 325.798 385.472C324.982 384.992 324.358 384.264 323.926 383.288C323.494 382.296 323.278 381.048 323.278 379.544C323.278 378.024 323.502 376.776 323.95 375.8C324.414 374.824 325.054 374.096 325.87 373.616C326.686 373.136 327.638 372.896 328.726 372.896C329.942 372.896 331.03 373.168 331.99 373.712C332.966 374.256 333.734 375.024 334.294 376.016C334.87 377.008 335.158 378.184 335.158 379.544C335.158 380.888 334.87 382.056 334.294 383.048C333.734 384.04 332.966 384.816 331.99 385.376C331.03 385.92 329.942 386.192 328.726 386.192ZM321.094 386V368.192H324.838V375.704L324.598 379.52L324.67 383.36V386H321.094ZM328.078 383.12C328.702 383.12 329.254 382.976 329.734 382.688C330.23 382.4 330.622 381.992 330.91 381.464C331.214 380.92 331.366 380.28 331.366 379.544C331.366 378.792 331.214 378.152 330.91 377.624C330.622 377.096 330.23 376.688 329.734 376.4C329.254 376.112 328.702 375.968 328.078 375.968C327.454 375.968 326.894 376.112 326.398 376.4C325.902 376.688 325.51 377.096 325.222 377.624C324.934 378.152 324.79 378.792 324.79 379.544C324.79 380.28 324.934 380.92 325.222 381.464C325.51 381.992 325.902 382.4 326.398 382.688C326.894 382.976 327.454 383.12 328.078 383.12ZM343.88 386.192C342.504 386.192 341.28 385.904 340.208 385.328C339.152 384.752 338.312 383.968 337.688 382.976C337.08 381.968 336.776 380.824 336.776 379.544C336.776 378.248 337.08 377.104 337.688 376.112C338.312 375.104 339.152 374.32 340.208 373.76C341.28 373.184 342.504 372.896 343.88 372.896C345.24 372.896 346.456 373.184 347.528 373.76C348.6 374.32 349.44 375.096 350.048 376.088C350.656 377.08 350.96 378.232 350.96 379.544C350.96 380.824 350.656 381.968 350.048 382.976C349.44 383.968 348.6 384.752 347.528 385.328C346.456 385.904 345.24 386.192 343.88 386.192ZM343.88 383.12C344.504 383.12 345.064 382.976 345.56 382.688C346.056 382.4 346.448 381.992 346.736 381.464C347.024 380.92 347.168 380.28 347.168 379.544C347.168 378.792 347.024 378.152 346.736 377.624C346.448 377.096 346.056 376.688 345.56 376.4C345.064 376.112 344.504 375.968 343.88 375.968C343.256 375.968 342.696 376.112 342.2 376.4C341.704 376.688 341.304 377.096 341 377.624C340.712 378.152 340.568 378.792 340.568 379.544C340.568 380.28 340.712 380.92 341 381.464C341.304 381.992 341.704 382.4 342.2 382.688C342.696 382.976 343.256 383.12 343.88 383.12Z" fill="white"/>
<defs>
<linearGradient id="paint0_linear_52_28" x1="22" y1="12.5" x2="498.5" y2="434" gradientUnits="userSpaceOnUse">
<stop stop-color="#05102E"/>
<stop offset="1" stop-color="#230542" stop-opacity="0"/>
</linearGradient>
<linearGradient id="paint1_linear_52_28" x1="35" y1="213" x2="459" y2="213" gradientUnits="userSpaceOnUse">
<stop stop-color="#001AFF"/>
<stop offset="0.25" stop-color="#A50EDA"/>
<stop offset="0.495" stop-color="#FC036D"/>
<stop offset="0.75" stop-color="#FD523D"/>
<stop offset="0.97" stop-color="#FAFF00"/>
</linearGradient>
</defs>
</svg>
