<svg width="117" height="89" viewBox="0 0 117 89" fill="none" xmlns="http://www.w3.org/2000/svg">
<path fill-rule="evenodd" clip-rule="evenodd" d="M0 0H117V89H0V0Z"/>
<path fill-rule="evenodd" clip-rule="evenodd" d="M114.279 76.4786V76.0232H114.6C114.775 76.0232 115.01 76.0373 115.01 76.2342C115.01 76.4426 114.889 76.4786 114.682 76.4786H114.279ZM114.279 76.8016H114.496L114.989 77.598H115.529L114.982 76.7694C115.269 76.7508 115.498 76.6247 115.498 76.276C115.498 75.8424 115.174 75.7009 114.622 75.7009H113.824V77.5973H114.279V76.8016ZM116.601 76.6523C116.601 75.5394 115.662 74.8916 114.611 74.8916C113.554 74.8916 112.613 75.5394 112.613 76.6523C112.613 77.7659 113.554 78.4143 114.611 78.4143C115.662 78.415 116.601 77.7665 116.601 76.6523ZM116.029 76.6523C116.029 77.4629 115.378 78.0078 114.611 78.0078V78.0039C113.824 78.0078 113.186 77.4622 113.186 76.6517C113.186 75.8418 113.824 75.3008 114.611 75.3008C115.377 75.302 116.029 75.8431 116.029 76.6523ZM44.5319 19.8463C51.9677 19.8463 56.3825 24.9773 56.3825 24.9773L50.3353 29.4958C47.619 25.481 46.7106 23.7113 42.1906 23.2269V34.6384C43.2969 34.9648 44.4557 35.1293 45.6216 35.1254C54.4432 35.1254 62.6699 24.9947 62.6699 24.9947C62.6699 24.9947 55.0512 15.827 43.4436 16.1474C43.0206 16.1609 42.602 16.1802 42.1906 16.2091V19.9705C42.968 19.8922 43.7495 19.8508 44.5319 19.8463Z" fill="white"/>
<path fill-rule="evenodd" clip-rule="evenodd" d="M42.1914 7.53711V13.157C42.6084 13.1265 43.0262 13.105 43.4444 13.0927C59.5872 12.6095 70.1073 24.8316 70.1073 24.8316C70.1073 24.8316 58.0245 37.8591 45.4396 37.8591C44.3505 37.8596 43.2635 37.7744 42.1914 37.6043V41.0807C43.0584 41.1779 43.9581 41.2364 44.8954 41.2364C56.609 41.2364 65.0787 35.9305 73.2814 29.6557C74.6403 30.6213 80.208 32.9693 81.3514 33.9973C73.5535 39.789 55.3785 44.451 45.0783 44.451C44.0807 44.451 43.1273 44.3989 42.1914 44.3197V49.2037H86.7094V7.53711H42.1914ZM34.099 26.4984C34.099 26.4984 37.6402 22.7415 42.1747 23.224C42.1798 23.224 42.1856 23.2266 42.1907 23.2266V19.9702C33.5519 20.7981 28.3506 25.9091 28.3506 25.9091C28.3506 25.9091 31.3579 35.8944 42.1907 37.6056V34.6381C36.0811 32.8195 34.099 26.4984 34.099 26.4984Z" fill="white"/>
<path fill-rule="evenodd" clip-rule="evenodd" d="M22.9498 25.4758C22.9498 25.4758 29.3692 17.0736 42.1913 16.209V13.1572C27.9914 14.1698 15.6946 24.8318 15.6946 24.8318C15.6946 24.8318 22.6596 42.6854 42.1913 44.32V41.0816C27.8579 39.4817 22.9498 25.4758 22.9498 25.4758ZM12.326 74.9578C12.1475 75.2737 11.9255 75.5516 11.9255 75.7484C11.9255 76.0656 12.1475 76.2232 12.4159 76.2232C13.5296 76.2232 15.8905 73.6551 16.201 73.6551C16.4694 73.6551 16.6036 73.8121 16.6036 73.971C16.6036 74.8008 12.7722 78.3551 9.74384 78.3551C8.94068 78.3551 8.62871 78.119 8.62871 77.6841C8.62871 77.2885 8.93996 76.6175 9.25338 75.9858L14.3313 66.3865C14.6875 65.7149 14.7768 65.2022 14.7768 64.8065C14.7768 64.1742 14.3763 63.7393 13.7531 63.7393C12.1482 63.7393 10.5891 65.3598 5.46616 72.7069C4.52879 74.0495 3.72854 75.273 2.88186 76.9726C2.43784 77.8411 2.12442 78.3544 1.41195 78.3544C0.655235 78.3544 0.343262 78.1183 0.343262 77.6442C0.343262 77.2878 0.655235 76.6561 0.788005 76.3403L5.01997 66.3067C5.2427 65.7547 5.46616 65.2407 5.46616 64.9648C5.46616 64.6489 5.1999 64.4514 4.79724 64.4514C3.6393 64.4514 1.54545 67.3746 1.09925 67.3746C1.05225 67.3751 1.0056 67.3673 0.962071 67.3515C0.918538 67.3358 0.879003 67.3125 0.845796 67.283C0.81259 67.2535 0.786387 67.2184 0.768736 67.1798C0.751084 67.1411 0.742341 67.0998 0.743023 67.0581C0.743023 66.6245 1.27846 66.1497 1.54472 65.794C2.1694 65.004 4.79651 62.3967 6.53413 62.3967C7.60282 62.3967 7.91552 62.9898 7.91552 64.0551C7.91552 65.5965 5.24198 70.6117 5.24198 71.0485C5.24198 71.1263 5.28769 71.2453 5.33122 71.2453C5.46544 71.2453 5.64319 71.0079 5.86448 70.6921C6.66763 69.5476 10.5876 62.3967 14.7325 62.3967C16.4244 62.3967 17.4481 63.1886 17.4481 64.5698C17.4481 65.5566 16.7807 66.7814 16.2902 67.6911L12.326 74.9578ZM36.0324 64.5756C36.0614 64.4997 36.089 64.3749 36.089 64.2732C36.089 63.5206 34.5878 63.5965 33.7658 63.3938C33.5387 63.3443 33.3697 63.2189 33.3697 63.0683C33.3697 62.6656 33.6802 62.5916 33.85 62.5916C34.8411 62.5916 35.748 62.6901 36.8254 62.6901C37.6757 62.6901 39.1753 62.5916 39.4604 62.5916C39.7129 62.5916 39.8834 62.7924 39.8834 63.0188C39.8834 63.1944 39.8544 63.3687 39.6563 63.3938C38.1277 63.5965 37.9869 63.8712 37.0234 65.9567L31.3578 78.2624C31.3336 78.3239 31.2874 78.3768 31.2263 78.413C31.1651 78.4492 31.0924 78.4668 31.019 78.4632C30.7919 78.4632 30.707 78.2624 30.6222 78.1106L24.0511 64.023C23.7972 63.5695 23.2015 63.4697 22.6639 63.3938C22.1539 63.3205 21.6714 63.2935 21.6714 62.8921C21.6714 62.6656 22.2105 62.5916 22.3802 62.5916C23.4569 62.5916 24.5336 62.6901 25.6088 62.6901C26.5157 62.6901 27.4495 62.5916 28.3564 62.5916C28.5566 62.5916 29.1776 62.6405 29.1776 62.9171C29.1776 63.3443 28.5834 63.3938 28.0451 63.3938C27.4777 63.3938 26.8835 63.3687 26.8835 63.8969C26.8835 63.9722 26.9133 64.0468 26.9409 64.1221L29.8299 70.5769C31.2744 73.8166 31.5856 74.1691 31.6698 74.1691C31.8113 74.1691 32.0674 74.1434 32.1806 73.8925L36.0324 64.5756ZM49.1208 76.4033C49.1208 77.082 49.7723 77.2074 50.0857 77.2576C50.9919 77.4075 51.6129 77.4075 51.6129 77.76C51.6129 78.036 51.1058 78.0604 50.5645 78.0604C49.8296 78.0604 49.2361 77.9607 47.7916 77.9607C46.4022 77.9607 45.6092 78.0604 44.9011 78.0604C44.2511 78.0604 43.8535 77.9865 43.8535 77.6841C43.8535 77.3573 44.0225 77.383 45.2994 77.2576C45.8073 77.2074 46.6866 77.082 46.6866 76.1518V64.4501C46.6866 63.646 46.3747 63.5212 45.5534 63.3938C44.7321 63.2446 44.5043 63.2935 44.5043 62.9422C44.5043 62.5916 44.9301 62.5916 45.2711 62.5916C46.1476 62.5916 46.601 62.6901 47.9324 62.6901C49.0656 62.6901 49.6323 62.5916 50.4826 62.5916C51.1065 62.5916 51.7559 62.5916 51.7559 62.8921C51.7559 63.3443 51.2465 63.2703 49.9152 63.3938C49.1498 63.4691 49.1208 64.223 49.1208 64.876V76.4033ZM59.5697 77.9607C58.7491 77.9607 57.6993 78.0604 57.0188 78.0604C56.8773 78.0604 56.5131 78.0604 56.5131 77.8095C56.5131 77.6082 56.709 77.383 57.5586 77.2576C58.1803 77.156 58.8311 77.082 58.8311 75.6262V63.8223C58.8311 63.3443 57.642 63.3938 56.9085 63.3443C56.2555 63.2935 56.0582 63.2935 56.0582 63.0188C56.0582 62.5916 56.8207 62.5916 57.1617 62.5916H59.7395C61.1267 62.5916 62.4573 62.4405 64.2711 62.4405C70.2196 62.4405 75.0349 65.051 75.0349 71.1051C75.0349 74.8722 71.1236 77.9607 66.2532 77.9607H59.5697ZM61.2674 74.8214C61.2674 76.5789 63.0529 77.3573 64.895 77.3573C67.1057 77.3573 72.3715 75.7259 72.3715 70.6265C72.3715 65.4788 67.1623 63.1944 63.6486 63.1944C61.3277 63.1944 61.2682 63.6454 61.2682 63.9966L61.2674 74.8214ZM84.6669 76.4033C84.6669 77.082 85.317 77.2074 85.629 77.2576C86.5344 77.4075 87.1591 77.4075 87.1591 77.76C87.1591 78.036 86.6505 78.0604 86.1107 78.0604C85.375 78.0604 84.7801 77.9607 83.3378 77.9607C81.9477 77.9607 81.154 78.0604 80.4458 78.0604C79.7965 78.0604 79.3989 77.9865 79.3989 77.6841C79.3989 77.3573 79.5702 77.383 80.8442 77.2576C81.3542 77.2074 82.2328 77.082 82.2328 76.1518V64.4501C82.2328 63.646 81.9208 63.5212 81.0981 63.3938C80.2775 63.2446 80.0512 63.2935 80.0512 62.9422C80.0512 62.5916 80.4749 62.5916 80.818 62.5916C81.6952 62.5916 82.1472 62.6901 83.4792 62.6901C84.6103 62.6901 85.1784 62.5916 86.0287 62.5916C86.652 62.5916 87.3027 62.5916 87.3027 62.8921C87.3027 63.3443 86.7927 63.2703 85.4621 63.3938C84.6981 63.4691 84.6684 64.223 84.6684 64.876V76.4033H84.6669ZM102.738 72.3486C102.51 71.7207 102.401 71.7207 100.076 71.695C98.1486 71.6725 97.698 71.7709 97.5841 71.9716C96.9036 73.2029 95.6513 76.227 95.6513 76.503C95.6513 77.0054 96.2463 77.2074 96.4719 77.2576C97.3519 77.4583 97.9157 77.5593 97.9157 77.76C97.9157 78.0604 97.4651 78.0604 97.2663 78.0604C96.4995 78.0604 95.594 77.9607 94.7749 77.9607C93.6968 77.9607 92.5925 78.0604 91.629 78.0604C91.4027 78.0604 91.2873 77.9865 91.2873 77.76C91.2873 77.4319 92.0274 77.4827 92.7326 77.2576C93.3006 77.082 93.4428 76.9057 93.5829 76.6291L100.723 62.5286C100.751 62.4827 100.793 62.4444 100.843 62.4178C100.894 62.3913 100.951 62.3775 101.01 62.3781C101.18 62.3781 101.323 62.4546 101.35 62.5537L106.697 75.4486C107.235 76.8304 107.803 77.1553 108.172 77.2576C108.936 77.4583 109.474 77.383 109.474 77.76C109.474 78.0109 109.248 78.0604 108.907 78.0604C107.69 78.0604 106.726 77.9607 105.62 77.9607C104.576 77.9607 103.582 78.0604 102.477 78.0604C102.195 78.0604 102.08 77.8848 102.08 77.7845C102.08 77.4827 102.648 77.4075 103.668 77.2576C103.835 77.2319 104.377 77.0324 104.377 76.6046C104.377 76.4277 104.263 76.1781 104.206 75.9762L102.738 72.3486ZM98.1783 70.0121C98.1217 70.1646 98.0085 70.3157 98.0085 70.4656C98.0085 70.5911 99.8223 70.5911 100.049 70.5911C100.218 70.5911 102.031 70.5911 102.031 70.4399C102.031 70.3157 101.974 70.189 101.886 69.9626L100.389 65.9953C100.361 65.9452 100.332 65.8461 100.219 65.8461C100.164 65.8461 100.106 65.895 100.076 65.9703L98.1783 70.0121Z" fill="white"/>
</svg>
